<?xml version="1.0" encoding="UTF-8" standalone="no"?>
<!DOCTYPE svg PUBLIC "-//W3C//DTD SVG 1.1//EN"
 "http://www.w3.org/Graphics/SVG/1.1/DTD/svg11.dtd">
<!-- Generated by graphviz version 2.40.1 (20161225.0304)
 -->
<!-- Title: geometrie_syntaxique.y Pages: 1 -->
<svg width="1670pt" height="780pt"
 viewBox="0.00 0.00 1669.50 780.00" xmlns="http://www.w3.org/2000/svg" xmlns:xlink="http://www.w3.org/1999/xlink">
<g id="graph0" class="graph" transform="scale(1 1) rotate(0) translate(4 776)">
<title>geometrie_syntaxique.y</title>
<polygon fill="#ffffff" stroke="transparent" points="-4,4 -4,-776 1665.5,-776 1665.5,4 -4,4"/>
<!-- 0 -->
<g id="node1" class="node">
<title>0</title>
<polygon fill="none" stroke="#000000" points="1224.5,-772 1001.5,-772 1001.5,-718 1224.5,-718 1224.5,-772"/>
<text text-anchor="middle" x="1113" y="-756.8" font-family="Courier,monospace" font-size="14.00" fill="#000000">State 0</text>
<text text-anchor="start" x="1009.5" y="-725.8" font-family="Courier,monospace" font-size="14.00" fill="#000000"> &#160;0 $accept: . Input $end</text>
</g>
<!-- 1 -->
<g id="node2" class="node">
<title>1</title>
<polygon fill="none" stroke="#000000" points="1158.5,-667 721.5,-667 721.5,-613 1158.5,-613 1158.5,-667"/>
<text text-anchor="middle" x="940" y="-651.8" font-family="Courier,monospace" font-size="14.00" fill="#000000">State 1</text>
<text text-anchor="start" x="729.5" y="-620.8" font-family="Courier,monospace" font-size="14.00" fill="#000000"> &#160;1 Input: FIGURE . ListeSegments ACCOLADE_FERMANTE</text>
</g>
<!-- 0&#45;&gt;1 -->
<g id="edge1" class="edge">
<title>0&#45;&gt;1</title>
<path fill="none" stroke="#000000" d="M1068.4482,-717.9599C1045.5329,-704.0518 1017.4352,-686.9982 993.3684,-672.3912"/>
<polygon fill="#000000" stroke="#000000" points="995.0658,-669.3273 984.7012,-667.1308 991.4338,-675.3113 995.0658,-669.3273"/>
<text text-anchor="middle" x="1062" y="-688.8" font-family="Courier,monospace" font-size="14.00" fill="#000000">FIGURE</text>
</g>
<!-- 2 -->
<g id="node3" class="node">
<title>2</title>
<polygon fill="none" stroke="#000000" points="1478.5,-667 1255.5,-667 1255.5,-613 1478.5,-613 1478.5,-667"/>
<text text-anchor="middle" x="1367" y="-651.8" font-family="Courier,monospace" font-size="14.00" fill="#000000">State 2</text>
<text text-anchor="start" x="1263.5" y="-620.8" font-family="Courier,monospace" font-size="14.00" fill="#000000"> &#160;0 $accept: Input . $end</text>
</g>
<!-- 0&#45;&gt;2 -->
<g id="edge2" class="edge">
<title>0&#45;&gt;2</title>
<path fill="none" stroke="#000000" stroke-dasharray="5,2" d="M1178.4113,-717.9599C1213.0887,-703.6248 1255.8493,-685.9481 1291.8815,-671.0529"/>
<polygon fill="#000000" stroke="#000000" points="1293.465,-674.1857 1301.3694,-667.1308 1290.7908,-667.7166 1293.465,-674.1857"/>
<text text-anchor="middle" x="1277" y="-688.8" font-family="Courier,monospace" font-size="14.00" fill="#000000">Input</text>
</g>
<!-- 3 -->
<g id="node4" class="node">
<title>3</title>
<polygon fill="none" stroke="#000000" points="470,-442 0,-442 0,-388 470,-388 470,-442"/>
<text text-anchor="middle" x="235" y="-426.8" font-family="Courier,monospace" font-size="14.00" fill="#000000">State 3</text>
<text text-anchor="start" x="8" y="-395.8" font-family="Courier,monospace" font-size="14.00" fill="#000000"> &#160;2 Un_Segment: SEGMENT . POINT POINT ACCOLADE_FERMANTE</text>
</g>
<!-- 1&#45;&gt;3 -->
<g id="edge3" class="edge">
<title>1&#45;&gt;3</title>
<path fill="none" stroke="#000000" d="M721.1937,-620.0475C600.5402,-606.6616 464.2633,-586.9225 409,-562 350.8522,-535.7766 296.9017,-484.2396 264.944,-449.699"/>
<polygon fill="#000000" stroke="#000000" points="267.4032,-447.2015 258.0782,-442.172 262.2315,-451.9189 267.4032,-447.2015"/>
<text text-anchor="middle" x="438" y="-523.8" font-family="Courier,monospace" font-size="14.00" fill="#000000">SEGMENT</text>
</g>
<!-- 4 -->
<g id="node5" class="node">
<title>4</title>
<polygon fill="none" stroke="#000000" points="864,-562 476,-562 476,-493 864,-493 864,-562"/>
<text text-anchor="middle" x="670" y="-546.8" font-family="Courier,monospace" font-size="14.00" fill="#000000">State 4</text>
<text text-anchor="start" x="484" y="-515.8" font-family="Courier,monospace" font-size="14.00" fill="#000000"> &#160;3 ListeSegments: Un_Segment .</text>
<text text-anchor="start" x="484" y="-500.8" font-family="Courier,monospace" font-size="14.00" fill="#000000"> &#160;4 &#160;&#160;&#160;&#160;&#160;&#160;&#160;&#160;&#160;&#160;&#160;&#160;&#160;| Un_Segment . ListeSegments</text>
</g>
<!-- 1&#45;&gt;4 -->
<g id="edge4" class="edge">
<title>1&#45;&gt;4</title>
<path fill="none" stroke="#000000" stroke-dasharray="5,2" d="M874.9847,-612.9103C841.18,-598.825 799.283,-581.3679 762.1941,-565.9142"/>
<polygon fill="#000000" stroke="#000000" points="763.4531,-562.6472 752.8761,-562.0317 760.7608,-569.1087 763.4531,-562.6472"/>
<text text-anchor="middle" x="871.5" y="-583.8" font-family="Courier,monospace" font-size="14.00" fill="#000000">Un_Segment</text>
</g>
<!-- 5 -->
<g id="node6" class="node">
<title>5</title>
<polygon fill="none" stroke="#000000" points="1420.5,-554.5 983.5,-554.5 983.5,-500.5 1420.5,-500.5 1420.5,-554.5"/>
<text text-anchor="middle" x="1202" y="-539.3" font-family="Courier,monospace" font-size="14.00" fill="#000000">State 5</text>
<text text-anchor="start" x="991.5" y="-508.3" font-family="Courier,monospace" font-size="14.00" fill="#000000"> &#160;1 Input: FIGURE ListeSegments . ACCOLADE_FERMANTE</text>
</g>
<!-- 1&#45;&gt;5 -->
<g id="edge5" class="edge">
<title>1&#45;&gt;5</title>
<path fill="none" stroke="#000000" stroke-dasharray="5,2" d="M1003.0889,-612.9103C1041.2176,-596.5382 1089.9556,-575.6107 1129.6441,-558.5688"/>
<polygon fill="#000000" stroke="#000000" points="1131.1971,-561.7111 1139.0049,-554.5494 1128.4352,-555.279 1131.1971,-561.7111"/>
<text text-anchor="middle" x="1133" y="-583.8" font-family="Courier,monospace" font-size="14.00" fill="#000000">ListeSegments</text>
</g>
<!-- 6 -->
<g id="node7" class="node">
<title>6</title>
<polygon fill="none" stroke="#000000" points="1661.5,-554.5 1438.5,-554.5 1438.5,-500.5 1661.5,-500.5 1661.5,-554.5"/>
<text text-anchor="middle" x="1550" y="-539.3" font-family="Courier,monospace" font-size="14.00" fill="#000000">State 6</text>
<text text-anchor="start" x="1446.5" y="-508.3" font-family="Courier,monospace" font-size="14.00" fill="#000000"> &#160;0 $accept: Input $end .</text>
</g>
<!-- 2&#45;&gt;6 -->
<g id="edge6" class="edge">
<title>2&#45;&gt;6</title>
<path fill="none" stroke="#000000" d="M1411.2992,-612.7669C1437.1661,-596.8651 1469.9635,-576.7028 1497.1707,-559.977"/>
<polygon fill="#000000" stroke="#000000" points="1499.106,-562.8958 1505.792,-554.6771 1495.44,-556.9325 1499.106,-562.8958"/>
<text text-anchor="middle" x="1481" y="-583.8" font-family="Courier,monospace" font-size="14.00" fill="#000000">$end</text>
</g>
<!-- 7 -->
<g id="node8" class="node">
<title>7</title>
<polygon fill="none" stroke="#000000" points="470,-337 0,-337 0,-283 470,-283 470,-337"/>
<text text-anchor="middle" x="235" y="-321.8" font-family="Courier,monospace" font-size="14.00" fill="#000000">State 7</text>
<text text-anchor="start" x="8" y="-290.8" font-family="Courier,monospace" font-size="14.00" fill="#000000"> &#160;2 Un_Segment: SEGMENT POINT . POINT ACCOLADE_FERMANTE</text>
</g>
<!-- 3&#45;&gt;7 -->
<g id="edge7" class="edge">
<title>3&#45;&gt;7</title>
<path fill="none" stroke="#000000" d="M235,-387.9599C235,-375.6857 235,-360.9618 235,-347.6317"/>
<polygon fill="#000000" stroke="#000000" points="238.5001,-347.3134 235,-337.3134 231.5001,-347.3134 238.5001,-347.3134"/>
<text text-anchor="middle" x="256" y="-358.8" font-family="Courier,monospace" font-size="14.00" fill="#000000">POINT</text>
</g>
<!-- 4&#45;&gt;3 -->
<g id="edge8" class="edge">
<title>4&#45;&gt;3</title>
<path fill="none" stroke="#000000" d="M536.5294,-492.9817C476.681,-477.5037 406.8019,-459.4315 349.3922,-444.5842"/>
<polygon fill="#000000" stroke="#000000" points="350.116,-441.1563 339.5581,-442.0409 348.3632,-447.9333 350.116,-441.1563"/>
<text text-anchor="middle" x="495" y="-463.8" font-family="Courier,monospace" font-size="14.00" fill="#000000">SEGMENT</text>
</g>
<!-- 4&#45;&gt;4 -->
<g id="edge9" class="edge">
<title>4&#45;&gt;4</title>
<path fill="none" stroke="#000000" stroke-dasharray="5,2" d="M864.2318,-535.1408C875.3572,-533.2989 882,-530.752 882,-527.5 882,-525.3659 879.1392,-523.5354 874.0281,-522.0086"/>
<polygon fill="#000000" stroke="#000000" points="874.7496,-518.5837 864.2318,-519.8592 873.2494,-525.4211 874.7496,-518.5837"/>
<text text-anchor="middle" x="923.5" y="-523.8" font-family="Courier,monospace" font-size="14.00" fill="#000000">Un_Segment</text>
</g>
<!-- 8 -->
<g id="node9" class="node">
<title>8</title>
<polygon fill="none" stroke="#000000" points="876,-442 488,-442 488,-388 876,-388 876,-442"/>
<text text-anchor="middle" x="682" y="-426.8" font-family="Courier,monospace" font-size="14.00" fill="#000000">State 8</text>
<text text-anchor="start" x="496" y="-395.8" font-family="Courier,monospace" font-size="14.00" fill="#000000"> &#160;4 ListeSegments: Un_Segment ListeSegments .</text>
</g>
<!-- 4&#45;&gt;8 -->
<g id="edge10" class="edge">
<title>4&#45;&gt;8</title>
<path fill="none" stroke="#000000" stroke-dasharray="5,2" d="M673.6983,-492.8283C675.0676,-479.9908 676.6255,-465.3859 678.0189,-452.3226"/>
<polygon fill="#000000" stroke="#000000" points="681.5139,-452.5547 679.0944,-442.2398 674.5534,-451.8122 681.5139,-452.5547"/>
<text text-anchor="middle" x="732" y="-463.8" font-family="Courier,monospace" font-size="14.00" fill="#000000">ListeSegments</text>
</g>
<!-- 4R3 -->
<g id="node10" class="node">
<title>4R3</title>
<polygon fill="#b2df8a" stroke="#000000" points="924,-433 893.8347,-415 924,-397 954.1653,-415 924,-433"/>
<text text-anchor="middle" x="924" y="-411.3" font-family="Courier,monospace" font-size="14.00" fill="#000000">R3</text>
</g>
<!-- 4&#45;&gt;4R3 -->
<g id="edge11" class="edge">
<title>4&#45;&gt;4R3</title>
<path fill="none" stroke="#000000" d="M770.5983,-492.9173C807.4201,-478.861 848.8873,-461.356 885,-442 890.9064,-438.8342 896.9985,-434.953 902.5614,-431.1309"/>
<polygon fill="#000000" stroke="#000000" points="904.6523,-433.9387 910.7649,-425.2849 900.5899,-428.2381 904.6523,-433.9387"/>
</g>
<!-- 9 -->
<g id="node11" class="node">
<title>9</title>
<polygon fill="none" stroke="#000000" points="1420.5,-442 983.5,-442 983.5,-388 1420.5,-388 1420.5,-442"/>
<text text-anchor="middle" x="1202" y="-426.8" font-family="Courier,monospace" font-size="14.00" fill="#000000">State 9</text>
<text text-anchor="start" x="991.5" y="-395.8" font-family="Courier,monospace" font-size="14.00" fill="#000000"> &#160;1 Input: FIGURE ListeSegments ACCOLADE_FERMANTE .</text>
</g>
<!-- 5&#45;&gt;9 -->
<g id="edge12" class="edge">
<title>5&#45;&gt;9</title>
<path fill="none" stroke="#000000" d="M1202,-500.2669C1202,-486.0012 1202,-468.3067 1202,-452.7405"/>
<polygon fill="#000000" stroke="#000000" points="1205.5001,-452.3722 1202,-442.3722 1198.5001,-452.3723 1205.5001,-452.3722"/>
<text text-anchor="middle" x="1272.5" y="-463.8" font-family="Courier,monospace" font-size="14.00" fill="#000000">ACCOLADE_FERMANTE</text>
</g>
<!-- 6R0 -->
<g id="node12" class="node">
<title>6R0</title>
<polygon fill="#a6cee3" stroke="#000000" points="1550,-433 1512.1282,-415 1550,-397 1587.8718,-415 1550,-433"/>
<text text-anchor="middle" x="1550" y="-411.3" font-family="Courier,monospace" font-size="14.00" fill="#000000">Acc</text>
</g>
<!-- 6&#45;&gt;6R0 -->
<g id="edge13" class="edge">
<title>6&#45;&gt;6R0</title>
<path fill="none" stroke="#000000" d="M1550,-500.2669C1550,-483.0343 1550,-460.7982 1550,-443.3544"/>
<polygon fill="#000000" stroke="#000000" points="1553.5001,-443.2001 1550,-433.2001 1546.5001,-443.2001 1553.5001,-443.2001"/>
</g>
<!-- 10 -->
<g id="node13" class="node">
<title>10</title>
<polygon fill="none" stroke="#000000" points="470,-232 0,-232 0,-178 470,-178 470,-232"/>
<text text-anchor="middle" x="235" y="-216.8" font-family="Courier,monospace" font-size="14.00" fill="#000000">State 10</text>
<text text-anchor="start" x="8" y="-185.8" font-family="Courier,monospace" font-size="14.00" fill="#000000"> &#160;2 Un_Segment: SEGMENT POINT POINT . ACCOLADE_FERMANTE</text>
</g>
<!-- 7&#45;&gt;10 -->
<g id="edge14" class="edge">
<title>7&#45;&gt;10</title>
<path fill="none" stroke="#000000" d="M235,-282.9599C235,-270.6857 235,-255.9618 235,-242.6317"/>
<polygon fill="#000000" stroke="#000000" points="238.5001,-242.3134 235,-232.3134 231.5001,-242.3134 238.5001,-242.3134"/>
<text text-anchor="middle" x="256" y="-253.8" font-family="Courier,monospace" font-size="14.00" fill="#000000">POINT</text>
</g>
<!-- 8R4 -->
<g id="node14" class="node">
<title>8R4</title>
<polygon fill="#b2df8a" stroke="#000000" points="682,-328 651.8347,-310 682,-292 712.1653,-310 682,-328"/>
<text text-anchor="middle" x="682" y="-306.3" font-family="Courier,monospace" font-size="14.00" fill="#000000">R4</text>
</g>
<!-- 8&#45;&gt;8R4 -->
<g id="edge15" class="edge">
<title>8&#45;&gt;8R4</title>
<path fill="none" stroke="#000000" d="M682,-387.9599C682,-372.6552 682,-353.5416 682,-338.0706"/>
<polygon fill="#000000" stroke="#000000" points="685.5001,-338.0333 682,-328.0333 678.5001,-338.0334 685.5001,-338.0333"/>
</g>
<!-- 9R1 -->
<g id="node15" class="node">
<title>9R1</title>
<polygon fill="#b2df8a" stroke="#000000" points="1202,-328 1171.8347,-310 1202,-292 1232.1653,-310 1202,-328"/>
<text text-anchor="middle" x="1202" y="-306.3" font-family="Courier,monospace" font-size="14.00" fill="#000000">R1</text>
</g>
<!-- 9&#45;&gt;9R1 -->
<g id="edge16" class="edge">
<title>9&#45;&gt;9R1</title>
<path fill="none" stroke="#000000" d="M1202,-387.9599C1202,-372.6552 1202,-353.5416 1202,-338.0706"/>
<polygon fill="#000000" stroke="#000000" points="1205.5001,-338.0333 1202,-328.0333 1198.5001,-338.0334 1205.5001,-338.0333"/>
</g>
<!-- 11 -->
<g id="node16" class="node">
<title>11</title>
<polygon fill="none" stroke="#000000" points="470,-127 0,-127 0,-73 470,-73 470,-127"/>
<text text-anchor="middle" x="235" y="-111.8" font-family="Courier,monospace" font-size="14.00" fill="#000000">State 11</text>
<text text-anchor="start" x="8" y="-80.8" font-family="Courier,monospace" font-size="14.00" fill="#000000"> &#160;2 Un_Segment: SEGMENT POINT POINT ACCOLADE_FERMANTE .</text>
</g>
<!-- 10&#45;&gt;11 -->
<g id="edge17" class="edge">
<title>10&#45;&gt;11</title>
<path fill="none" stroke="#000000" d="M235,-177.9599C235,-165.6857 235,-150.9618 235,-137.6317"/>
<polygon fill="#000000" stroke="#000000" points="238.5001,-137.3134 235,-127.3134 231.5001,-137.3134 238.5001,-137.3134"/>
<text text-anchor="middle" x="305.5" y="-148.8" font-family="Courier,monospace" font-size="14.00" fill="#000000">ACCOLADE_FERMANTE</text>
</g>
<!-- 11R2 -->
<g id="node17" class="node">
<title>11R2</title>
<polygon fill="#b2df8a" stroke="#000000" points="235,-36 204.8347,-18 235,0 265.1653,-18 235,-36"/>
<text text-anchor="middle" x="235" y="-14.3" font-family="Courier,monospace" font-size="14.00" fill="#000000">R2</text>
</g>
<!-- 11&#45;&gt;11R2 -->
<g id="edge18" class="edge">
<title>11&#45;&gt;11R2</title>
<path fill="none" stroke="#000000" d="M235,-72.6952C235,-64.3091 235,-55.0593 235,-46.5897"/>
<polygon fill="#000000" stroke="#000000" points="238.5001,-46.4024 235,-36.4024 231.5001,-46.4024 238.5001,-46.4024"/>
</g>
</g>
</svg>
