<?xml version="1.0" encoding="UTF-8" standalone="no"?>
<!DOCTYPE svg PUBLIC "-//W3C//DTD SVG 1.1//EN"
 "http://www.w3.org/Graphics/SVG/1.1/DTD/svg11.dtd">
<!-- Generated by graphviz version 2.40.1 (20161225.0304)
 -->
<!-- Title: syntaxique.y Pages: 1 -->
<svg width="1731pt" height="1035pt"
 viewBox="0.00 0.00 1731.00 1035.00" xmlns="http://www.w3.org/2000/svg" xmlns:xlink="http://www.w3.org/1999/xlink">
<g id="graph0" class="graph" transform="scale(1 1) rotate(0) translate(4 1031)">
<title>syntaxique.y</title>
<polygon fill="#ffffff" stroke="transparent" points="-4,4 -4,-1031 1727,-1031 1727,4 -4,4"/>
<!-- 0 -->
<g id="node1" class="node">
<title>0</title>
<polygon fill="none" stroke="#000000" points="1520,-1027 1297,-1027 1297,-973 1520,-973 1520,-1027"/>
<text text-anchor="middle" x="1408.5" y="-1011.8" font-family="Courier,monospace" font-size="14.00" fill="#000000">State 0</text>
<text text-anchor="start" x="1305" y="-980.8" font-family="Courier,monospace" font-size="14.00" fill="#000000"> &#160;0 $accept: . Input $end</text>
</g>
<!-- 1 -->
<g id="node2" class="node">
<title>1</title>
<polygon fill="none" stroke="#000000" points="1482,-922 929,-922 929,-868 1482,-868 1482,-922"/>
<text text-anchor="middle" x="1205.5" y="-906.8" font-family="Courier,monospace" font-size="14.00" fill="#000000">State 1</text>
<text text-anchor="start" x="937" y="-875.8" font-family="Courier,monospace" font-size="14.00" fill="#000000"> &#160;1 Input: PERSONNE . ACCOLADE_OUVRANTE Contact ACCOLADE_FERMANTE</text>
</g>
<!-- 0&#45;&gt;1 -->
<g id="edge1" class="edge">
<title>0&#45;&gt;1</title>
<path fill="none" stroke="#000000" d="M1356.2225,-972.9599C1328.9796,-958.8688 1295.4946,-941.5489 1267.0108,-926.8159"/>
<polygon fill="#000000" stroke="#000000" points="1268.443,-923.6163 1257.9528,-922.1308 1265.227,-929.8338 1268.443,-923.6163"/>
<text text-anchor="middle" x="1353" y="-943.8" font-family="Courier,monospace" font-size="14.00" fill="#000000">PERSONNE</text>
</g>
<!-- 2 -->
<g id="node3" class="node">
<title>2</title>
<polygon fill="none" stroke="#000000" points="1723,-922 1500,-922 1500,-868 1723,-868 1723,-922"/>
<text text-anchor="middle" x="1611.5" y="-906.8" font-family="Courier,monospace" font-size="14.00" fill="#000000">State 2</text>
<text text-anchor="start" x="1508" y="-875.8" font-family="Courier,monospace" font-size="14.00" fill="#000000"> &#160;0 $accept: Input . $end</text>
</g>
<!-- 0&#45;&gt;2 -->
<g id="edge2" class="edge">
<title>0&#45;&gt;2</title>
<path fill="none" stroke="#000000" stroke-dasharray="5,2" d="M1460.7775,-972.9599C1488.0204,-958.8688 1521.5054,-941.5489 1549.9892,-926.8159"/>
<polygon fill="#000000" stroke="#000000" points="1551.773,-929.8338 1559.0472,-922.1308 1548.557,-923.6163 1551.773,-929.8338"/>
<text text-anchor="middle" x="1543.5" y="-943.8" font-family="Courier,monospace" font-size="14.00" fill="#000000">Input</text>
</g>
<!-- 3 -->
<g id="node4" class="node">
<title>3</title>
<polygon fill="none" stroke="#000000" points="1482,-817 929,-817 929,-763 1482,-763 1482,-817"/>
<text text-anchor="middle" x="1205.5" y="-801.8" font-family="Courier,monospace" font-size="14.00" fill="#000000">State 3</text>
<text text-anchor="start" x="937" y="-770.8" font-family="Courier,monospace" font-size="14.00" fill="#000000"> &#160;1 Input: PERSONNE ACCOLADE_OUVRANTE . Contact ACCOLADE_FERMANTE</text>
</g>
<!-- 1&#45;&gt;3 -->
<g id="edge3" class="edge">
<title>1&#45;&gt;3</title>
<path fill="none" stroke="#000000" d="M1205.5,-867.9599C1205.5,-855.6857 1205.5,-840.9618 1205.5,-827.6317"/>
<polygon fill="#000000" stroke="#000000" points="1209.0001,-827.3134 1205.5,-817.3134 1202.0001,-827.3134 1209.0001,-827.3134"/>
<text text-anchor="middle" x="1276" y="-838.8" font-family="Courier,monospace" font-size="14.00" fill="#000000">ACCOLADE_OUVRANTE</text>
</g>
<!-- 4 -->
<g id="node5" class="node">
<title>4</title>
<polygon fill="none" stroke="#000000" points="1723,-817 1500,-817 1500,-763 1723,-763 1723,-817"/>
<text text-anchor="middle" x="1611.5" y="-801.8" font-family="Courier,monospace" font-size="14.00" fill="#000000">State 4</text>
<text text-anchor="start" x="1508" y="-770.8" font-family="Courier,monospace" font-size="14.00" fill="#000000"> &#160;0 $accept: Input $end .</text>
</g>
<!-- 2&#45;&gt;4 -->
<g id="edge4" class="edge">
<title>2&#45;&gt;4</title>
<path fill="none" stroke="#000000" d="M1611.5,-867.9599C1611.5,-855.6857 1611.5,-840.9618 1611.5,-827.6317"/>
<polygon fill="#000000" stroke="#000000" points="1615.0001,-827.3134 1611.5,-817.3134 1608.0001,-827.3134 1615.0001,-827.3134"/>
<text text-anchor="middle" x="1628.5" y="-838.8" font-family="Courier,monospace" font-size="14.00" fill="#000000">$end</text>
</g>
<!-- 5 -->
<g id="node6" class="node">
<title>5</title>
<polygon fill="none" stroke="#000000" points="1337,-712 660,-712 660,-628 1337,-628 1337,-712"/>
<text text-anchor="middle" x="998.5" y="-696.8" font-family="Courier,monospace" font-size="14.00" fill="#000000">State 5</text>
<text text-anchor="start" x="668" y="-665.8" font-family="Courier,monospace" font-size="14.00" fill="#000000"> &#160;1 Input: PERSONNE ACCOLADE_OUVRANTE Contact . ACCOLADE_FERMANTE</text>
<text text-anchor="start" x="668" y="-650.8" font-family="Courier,monospace" font-size="14.00" fill="#000000"> &#160;3 Contact: Contact . CONTACT ACCOLADE_OUVRANTE NUMTEL CHAINE ACCOLADE_FERMANTE</text>
<text text-anchor="start" x="668" y="-635.8" font-family="Courier,monospace" font-size="14.00" fill="#000000"> &#160;4 &#160;&#160;&#160;&#160;&#160;&#160;&#160;| Contact . CONTACT ACCOLADE_OUVRANTE EMAIL CHAINE ACCOLADE_FERMANTE</text>
</g>
<!-- 3&#45;&gt;5 -->
<g id="edge5" class="edge">
<title>3&#45;&gt;5</title>
<path fill="none" stroke="#000000" stroke-dasharray="5,2" d="M1158.7871,-762.92C1135.5393,-749.4431 1106.7553,-732.7567 1080.0221,-717.2592"/>
<polygon fill="#000000" stroke="#000000" points="1081.4524,-714.0428 1071.0456,-712.0554 1077.9417,-720.0988 1081.4524,-714.0428"/>
<text text-anchor="middle" x="1156.5" y="-733.8" font-family="Courier,monospace" font-size="14.00" fill="#000000">Contact</text>
</g>
<!-- 3R2 -->
<g id="node7" class="node">
<title>3R2</title>
<polygon fill="#b2df8a" stroke="#000000" points="1385.5,-688 1355.3347,-670 1385.5,-652 1415.6653,-670 1385.5,-688"/>
<text text-anchor="middle" x="1385.5" y="-666.3" font-family="Courier,monospace" font-size="14.00" fill="#000000">R2</text>
</g>
<!-- 3&#45;&gt;3R2 -->
<g id="edge6" class="edge">
<title>3&#45;&gt;3R2</title>
<path fill="none" stroke="#000000" d="M1263.1061,-762.9108C1289.3833,-749.3239 1320.2041,-731.5937 1345.5,-712 1353.8015,-705.5698 1361.9771,-697.4091 1368.7519,-689.9947"/>
<polygon fill="#000000" stroke="#000000" points="1371.4983,-692.1723 1375.4931,-682.3594 1366.2508,-687.5393 1371.4983,-692.1723"/>
</g>
<!-- 4R0 -->
<g id="node8" class="node">
<title>4R0</title>
<polygon fill="#a6cee3" stroke="#000000" points="1611.5,-688 1573.6282,-670 1611.5,-652 1649.3718,-670 1611.5,-688"/>
<text text-anchor="middle" x="1611.5" y="-666.3" font-family="Courier,monospace" font-size="14.00" fill="#000000">Acc</text>
</g>
<!-- 4&#45;&gt;4R0 -->
<g id="edge7" class="edge">
<title>4&#45;&gt;4R0</title>
<path fill="none" stroke="#000000" d="M1611.5,-762.7701C1611.5,-743.5161 1611.5,-717.7674 1611.5,-698.2823"/>
<polygon fill="#000000" stroke="#000000" points="1615.0001,-698.1826 1611.5,-688.1826 1608.0001,-698.1827 1615.0001,-698.1826"/>
</g>
<!-- 6 -->
<g id="node9" class="node">
<title>6</title>
<polygon fill="none" stroke="#000000" points="1021,-577 344,-577 344,-508 1021,-508 1021,-577"/>
<text text-anchor="middle" x="682.5" y="-561.8" font-family="Courier,monospace" font-size="14.00" fill="#000000">State 6</text>
<text text-anchor="start" x="352" y="-530.8" font-family="Courier,monospace" font-size="14.00" fill="#000000"> &#160;3 Contact: Contact CONTACT . ACCOLADE_OUVRANTE NUMTEL CHAINE ACCOLADE_FERMANTE</text>
<text text-anchor="start" x="352" y="-515.8" font-family="Courier,monospace" font-size="14.00" fill="#000000"> &#160;4 &#160;&#160;&#160;&#160;&#160;&#160;&#160;| Contact CONTACT . ACCOLADE_OUVRANTE EMAIL CHAINE ACCOLADE_FERMANTE</text>
</g>
<!-- 5&#45;&gt;6 -->
<g id="edge8" class="edge">
<title>5&#45;&gt;6</title>
<path fill="none" stroke="#000000" d="M894.154,-627.8984C856.6106,-612.7503 814.4809,-595.7518 777.7525,-580.9326"/>
<polygon fill="#000000" stroke="#000000" points="778.6259,-577.5108 768.0426,-577.0148 776.0066,-584.0024 778.6259,-577.5108"/>
<text text-anchor="middle" x="869.5" y="-598.8" font-family="Courier,monospace" font-size="14.00" fill="#000000">CONTACT</text>
</g>
<!-- 7 -->
<g id="node10" class="node">
<title>7</title>
<polygon fill="none" stroke="#000000" points="1592,-569.5 1039,-569.5 1039,-515.5 1592,-515.5 1592,-569.5"/>
<text text-anchor="middle" x="1315.5" y="-554.3" font-family="Courier,monospace" font-size="14.00" fill="#000000">State 7</text>
<text text-anchor="start" x="1047" y="-523.3" font-family="Courier,monospace" font-size="14.00" fill="#000000"> &#160;1 Input: PERSONNE ACCOLADE_OUVRANTE Contact ACCOLADE_FERMANTE .</text>
</g>
<!-- 5&#45;&gt;7 -->
<g id="edge9" class="edge">
<title>5&#45;&gt;7</title>
<path fill="none" stroke="#000000" d="M1103.1762,-627.8984C1147.5132,-610.0657 1198.2262,-589.6685 1238.9694,-573.2812"/>
<polygon fill="#000000" stroke="#000000" points="1240.3296,-576.5067 1248.3012,-569.5279 1237.7175,-570.0123 1240.3296,-576.5067"/>
<text text-anchor="middle" x="1247" y="-598.8" font-family="Courier,monospace" font-size="14.00" fill="#000000">ACCOLADE_FERMANTE</text>
</g>
<!-- 8 -->
<g id="node11" class="node">
<title>8</title>
<polygon fill="none" stroke="#000000" points="1021,-457 344,-457 344,-388 1021,-388 1021,-457"/>
<text text-anchor="middle" x="682.5" y="-441.8" font-family="Courier,monospace" font-size="14.00" fill="#000000">State 8</text>
<text text-anchor="start" x="352" y="-410.8" font-family="Courier,monospace" font-size="14.00" fill="#000000"> &#160;3 Contact: Contact CONTACT ACCOLADE_OUVRANTE . NUMTEL CHAINE ACCOLADE_FERMANTE</text>
<text text-anchor="start" x="352" y="-395.8" font-family="Courier,monospace" font-size="14.00" fill="#000000"> &#160;4 &#160;&#160;&#160;&#160;&#160;&#160;&#160;| Contact CONTACT ACCOLADE_OUVRANTE . EMAIL CHAINE ACCOLADE_FERMANTE</text>
</g>
<!-- 6&#45;&gt;8 -->
<g id="edge10" class="edge">
<title>6&#45;&gt;8</title>
<path fill="none" stroke="#000000" d="M682.5,-507.791C682.5,-495.1043 682.5,-480.5711 682.5,-467.1391"/>
<polygon fill="#000000" stroke="#000000" points="686.0001,-467.1309 682.5,-457.131 679.0001,-467.131 686.0001,-467.1309"/>
<text text-anchor="middle" x="753" y="-478.8" font-family="Courier,monospace" font-size="14.00" fill="#000000">ACCOLADE_OUVRANTE</text>
</g>
<!-- 7R1 -->
<g id="node12" class="node">
<title>7R1</title>
<polygon fill="#b2df8a" stroke="#000000" points="1315.5,-440.5 1285.3347,-422.5 1315.5,-404.5 1345.6653,-422.5 1315.5,-440.5"/>
<text text-anchor="middle" x="1315.5" y="-418.8" font-family="Courier,monospace" font-size="14.00" fill="#000000">R1</text>
</g>
<!-- 7&#45;&gt;7R1 -->
<g id="edge11" class="edge">
<title>7&#45;&gt;7R1</title>
<path fill="none" stroke="#000000" d="M1315.5,-515.2701C1315.5,-496.0161 1315.5,-470.2674 1315.5,-450.7823"/>
<polygon fill="#000000" stroke="#000000" points="1319.0001,-450.6826 1315.5,-440.6826 1312.0001,-450.6827 1319.0001,-450.6826"/>
</g>
<!-- 9 -->
<g id="node13" class="node">
<title>9</title>
<polygon fill="none" stroke="#000000" points="677,-337 0,-337 0,-283 677,-283 677,-337"/>
<text text-anchor="middle" x="338.5" y="-321.8" font-family="Courier,monospace" font-size="14.00" fill="#000000">State 9</text>
<text text-anchor="start" x="8" y="-290.8" font-family="Courier,monospace" font-size="14.00" fill="#000000"> &#160;3 Contact: Contact CONTACT ACCOLADE_OUVRANTE NUMTEL . CHAINE ACCOLADE_FERMANTE</text>
</g>
<!-- 8&#45;&gt;9 -->
<g id="edge12" class="edge">
<title>8&#45;&gt;9</title>
<path fill="none" stroke="#000000" d="M576.9509,-387.9817C530.307,-372.7276 475.9586,-354.9537 430.9379,-340.2304"/>
<polygon fill="#000000" stroke="#000000" points="431.7776,-336.8227 421.1851,-337.0409 429.6018,-343.4759 431.7776,-336.8227"/>
<text text-anchor="middle" x="546.5" y="-358.8" font-family="Courier,monospace" font-size="14.00" fill="#000000">NUMTEL</text>
</g>
<!-- 10 -->
<g id="node14" class="node">
<title>10</title>
<polygon fill="none" stroke="#000000" points="1362.5,-337 694.5,-337 694.5,-283 1362.5,-283 1362.5,-337"/>
<text text-anchor="middle" x="1028.5" y="-321.8" font-family="Courier,monospace" font-size="14.00" fill="#000000">State 10</text>
<text text-anchor="start" x="702.5" y="-290.8" font-family="Courier,monospace" font-size="14.00" fill="#000000"> &#160;4 Contact: Contact CONTACT ACCOLADE_OUVRANTE EMAIL . CHAINE ACCOLADE_FERMANTE</text>
</g>
<!-- 8&#45;&gt;10 -->
<g id="edge13" class="edge">
<title>8&#45;&gt;10</title>
<path fill="none" stroke="#000000" d="M788.6628,-387.9817C835.6762,-372.6956 890.4715,-354.8792 935.8094,-340.1379"/>
<polygon fill="#000000" stroke="#000000" points="936.9065,-343.4615 945.3342,-337.0409 934.742,-336.8046 936.9065,-343.4615"/>
<text text-anchor="middle" x="907.5" y="-358.8" font-family="Courier,monospace" font-size="14.00" fill="#000000">EMAIL</text>
</g>
<!-- 11 -->
<g id="node15" class="node">
<title>11</title>
<polygon fill="none" stroke="#000000" points="677,-232 0,-232 0,-178 677,-178 677,-232"/>
<text text-anchor="middle" x="338.5" y="-216.8" font-family="Courier,monospace" font-size="14.00" fill="#000000">State 11</text>
<text text-anchor="start" x="8" y="-185.8" font-family="Courier,monospace" font-size="14.00" fill="#000000"> &#160;3 Contact: Contact CONTACT ACCOLADE_OUVRANTE NUMTEL CHAINE . ACCOLADE_FERMANTE</text>
</g>
<!-- 9&#45;&gt;11 -->
<g id="edge14" class="edge">
<title>9&#45;&gt;11</title>
<path fill="none" stroke="#000000" d="M338.5,-282.9599C338.5,-270.6857 338.5,-255.9618 338.5,-242.6317"/>
<polygon fill="#000000" stroke="#000000" points="342.0001,-242.3134 338.5,-232.3134 335.0001,-242.3134 342.0001,-242.3134"/>
<text text-anchor="middle" x="363.5" y="-253.8" font-family="Courier,monospace" font-size="14.00" fill="#000000">CHAINE</text>
</g>
<!-- 12 -->
<g id="node16" class="node">
<title>12</title>
<polygon fill="none" stroke="#000000" points="1362.5,-232 694.5,-232 694.5,-178 1362.5,-178 1362.5,-232"/>
<text text-anchor="middle" x="1028.5" y="-216.8" font-family="Courier,monospace" font-size="14.00" fill="#000000">State 12</text>
<text text-anchor="start" x="702.5" y="-185.8" font-family="Courier,monospace" font-size="14.00" fill="#000000"> &#160;4 Contact: Contact CONTACT ACCOLADE_OUVRANTE EMAIL CHAINE . ACCOLADE_FERMANTE</text>
</g>
<!-- 10&#45;&gt;12 -->
<g id="edge15" class="edge">
<title>10&#45;&gt;12</title>
<path fill="none" stroke="#000000" d="M1028.5,-282.9599C1028.5,-270.6857 1028.5,-255.9618 1028.5,-242.6317"/>
<polygon fill="#000000" stroke="#000000" points="1032.0001,-242.3134 1028.5,-232.3134 1025.0001,-242.3134 1032.0001,-242.3134"/>
<text text-anchor="middle" x="1053.5" y="-253.8" font-family="Courier,monospace" font-size="14.00" fill="#000000">CHAINE</text>
</g>
<!-- 13 -->
<g id="node17" class="node">
<title>13</title>
<polygon fill="none" stroke="#000000" points="677,-127 0,-127 0,-73 677,-73 677,-127"/>
<text text-anchor="middle" x="338.5" y="-111.8" font-family="Courier,monospace" font-size="14.00" fill="#000000">State 13</text>
<text text-anchor="start" x="8" y="-80.8" font-family="Courier,monospace" font-size="14.00" fill="#000000"> &#160;3 Contact: Contact CONTACT ACCOLADE_OUVRANTE NUMTEL CHAINE ACCOLADE_FERMANTE .</text>
</g>
<!-- 11&#45;&gt;13 -->
<g id="edge16" class="edge">
<title>11&#45;&gt;13</title>
<path fill="none" stroke="#000000" d="M338.5,-177.9599C338.5,-165.6857 338.5,-150.9618 338.5,-137.6317"/>
<polygon fill="#000000" stroke="#000000" points="342.0001,-137.3134 338.5,-127.3134 335.0001,-137.3134 342.0001,-137.3134"/>
<text text-anchor="middle" x="409" y="-148.8" font-family="Courier,monospace" font-size="14.00" fill="#000000">ACCOLADE_FERMANTE</text>
</g>
<!-- 14 -->
<g id="node18" class="node">
<title>14</title>
<polygon fill="none" stroke="#000000" points="1362.5,-127 694.5,-127 694.5,-73 1362.5,-73 1362.5,-127"/>
<text text-anchor="middle" x="1028.5" y="-111.8" font-family="Courier,monospace" font-size="14.00" fill="#000000">State 14</text>
<text text-anchor="start" x="702.5" y="-80.8" font-family="Courier,monospace" font-size="14.00" fill="#000000"> &#160;4 Contact: Contact CONTACT ACCOLADE_OUVRANTE EMAIL CHAINE ACCOLADE_FERMANTE .</text>
</g>
<!-- 12&#45;&gt;14 -->
<g id="edge17" class="edge">
<title>12&#45;&gt;14</title>
<path fill="none" stroke="#000000" d="M1028.5,-177.9599C1028.5,-165.6857 1028.5,-150.9618 1028.5,-137.6317"/>
<polygon fill="#000000" stroke="#000000" points="1032.0001,-137.3134 1028.5,-127.3134 1025.0001,-137.3134 1032.0001,-137.3134"/>
<text text-anchor="middle" x="1099" y="-148.8" font-family="Courier,monospace" font-size="14.00" fill="#000000">ACCOLADE_FERMANTE</text>
</g>
<!-- 13R3 -->
<g id="node19" class="node">
<title>13R3</title>
<polygon fill="#b2df8a" stroke="#000000" points="338.5,-36 308.3347,-18 338.5,0 368.6653,-18 338.5,-36"/>
<text text-anchor="middle" x="338.5" y="-14.3" font-family="Courier,monospace" font-size="14.00" fill="#000000">R3</text>
</g>
<!-- 13&#45;&gt;13R3 -->
<g id="edge18" class="edge">
<title>13&#45;&gt;13R3</title>
<path fill="none" stroke="#000000" d="M338.5,-72.6952C338.5,-64.3091 338.5,-55.0593 338.5,-46.5897"/>
<polygon fill="#000000" stroke="#000000" points="342.0001,-46.4024 338.5,-36.4024 335.0001,-46.4024 342.0001,-46.4024"/>
</g>
<!-- 14R4 -->
<g id="node20" class="node">
<title>14R4</title>
<polygon fill="#b2df8a" stroke="#000000" points="1028.5,-36 998.3347,-18 1028.5,0 1058.6653,-18 1028.5,-36"/>
<text text-anchor="middle" x="1028.5" y="-14.3" font-family="Courier,monospace" font-size="14.00" fill="#000000">R4</text>
</g>
<!-- 14&#45;&gt;14R4 -->
<g id="edge19" class="edge">
<title>14&#45;&gt;14R4</title>
<path fill="none" stroke="#000000" d="M1028.5,-72.6952C1028.5,-64.3091 1028.5,-55.0593 1028.5,-46.5897"/>
<polygon fill="#000000" stroke="#000000" points="1032.0001,-46.4024 1028.5,-36.4024 1025.0001,-46.4024 1032.0001,-46.4024"/>
</g>
</g>
</svg>
